<?xml version="1.0" standalone="no"?>
<!DOCTYPE svg PUBLIC "-//W3C//DTD SVG 20010904//EN"
 "http://www.w3.org/TR/2001/REC-SVG-20010904/DTD/svg10.dtd">
<svg version="1.0" xmlns="http://www.w3.org/2000/svg"
 width="260.000000pt" height="260.000000pt" viewBox="0 0 260.000000 260.000000"
 preserveAspectRatio="xMidYMid meet">
<metadata>
Created by potrace 1.11, written by Peter Selinger 2001-2013
</metadata>
<g transform="translate(0.000000,260.000000) scale(0.100000,-0.100000)"
fill="#000000" stroke="none">
<path d="M839 2523 c-2 -15 -6 -69 -13 -168 -15 -226 -17 -252 -22 -300 -6
-67 -31 -152 -47 -158 -6 -2 -19 -1 -27 3 -8 4 -42 7 -75 5 -33 -1 -83 -3
-112 -4 -35 -1 -50 -5 -49 -13 12 -59 35 -110 80 -176 52 -76 67 -96 114 -150
71 -81 164 -222 146 -222 -4 0 -30 15 -58 34 -28 18 -75 45 -104 60 -29 15
-82 45 -117 66 -36 22 -67 35 -70 30 -3 -6 -4 -14 -1 -18 2 -4 8 -33 11 -65 7
-55 6 -57 -17 -58 -12 0 -30 -2 -38 -4 -173 -37 -258 -44 -317 -26 -18 5 -33
8 -33 5 0 -11 146 -294 175 -339 35 -55 136 -162 199 -210 89 -69 84 -58 48
-93 -17 -16 -44 -57 -61 -90 -18 -35 -49 -76 -77 -100 l-46 -39 38 -8 c22 -4
48 -9 59 -11 11 -2 31 -5 45 -8 70 -13 114 -17 207 -17 55 1 116 3 135 5 18 3
53 7 77 10 46 6 278 63 294 73 5 3 30 11 55 18 26 8 85 27 131 44 45 17 87 28
93 25 13 -8 8 -192 -8 -272 -14 -74 -55 -188 -85 -240 -25 -43 -24 -44 10 -39
43 7 47 11 81 84 78 164 104 271 102 424 l-1 85 77 28 c377 136 585 251 747
411 84 83 118 122 147 167 l18 27 -58 -2 c-41 -1 -76 7 -122 25 -58 24 -99 35
-138 37 -7 1 -11 5 -8 10 3 4 8 23 11 42 3 19 11 63 18 99 23 112 9 308 -33
445 -9 29 -14 50 -26 110 -11 59 -14 60 -44 18 -37 -51 -77 -81 -160 -123 -36
-18 -82 -46 -102 -62 l-38 -30 -42 68 c-35 56 -43 64 -50 48 -28 -71 -101
-260 -102 -269 -14 -69 -45 -120 -47 -77 0 9 -2 28 -5 42 -2 14 -6 86 -9 160
-11 297 -13 314 -39 373 -14 32 -27 57 -29 57 -2 0 -17 -12 -33 -26 -16 -14
-50 -39 -75 -55 -26 -16 -57 -45 -70 -63 l-23 -34 -41 20 c-23 12 -122 103
-237 219 -109 109 -200 199 -203 199 -3 0 -6 -3 -6 -7z"/>
</g>
</svg>
